<svg xmlns="http://www.w3.org/2000/svg" width="1024" height="1024" viewBox="0 0 1024 1024">
  <defs>
    <pattern id="qr" width="156" height="156" patternUnits="userSpaceOnUse">
      <rect width="156" height="156" fill="#fff"/>
      <g fill="#111111">
        <rect x="12" y="12" width="48" height="48" rx="2"/>
        <rect x="20" y="20" width="32" height="32" fill="#fff"/>
        <rect x="28" y="28" width="16" height="16" rx="1"/>
        <rect x="96" y="12" width="24" height="24" rx="1"/>
        <rect x="120" y="12" width="24" height="24" rx="1"/>
        <rect x="96" y="36" width="24" height="24" rx="1"/>
        <rect x="120" y="60" width="24" height="24" rx="1"/>
        <rect x="72" y="60" width="24" height="24" rx="1"/>
        <rect x="12" y="96" width="48" height="48" rx="2"/>
        <rect x="20" y="104" width="32" height="32" fill="#fff"/>
        <rect x="28" y="112" width="16" height="16" rx="1"/>
        <rect x="72" y="96" width="24" height="24" rx="1"/>
        <rect x="96" y="96" width="24" height="24" rx="1"/>
        <rect x="120" y="96" width="24" height="24" rx="1"/>
        <rect x="72" y="120" width="24" height="24" rx="1"/>
        <rect x="120" y="120" width="24" height="24" rx="1"/>
        <rect x="72" y="12" width="12" height="12" rx="1"/>
        <rect x="72" y="36" width="12" height="12" rx="1"/>
        <rect x="84" y="48" width="12" height="12" rx="1"/>
        <rect x="60" y="72" width="12" height="12" rx="1"/>
        <rect x="84" y="72" width="12" height="12" rx="1"/>
        <rect x="108" y="84" width="12" height="12" rx="1"/>
        <rect x="60" y="84" width="12" height="12" rx="1"/>
        <rect x="60" y="108" width="12" height="12" rx="1"/>
        <rect x="84" y="132" width="12" height="12" rx="1"/>
        <rect x="108" y="132" width="12" height="12" rx="1"/>
      </g>
    </pattern>
    <mask id="bolt-mask">
      <rect width="1024" height="1024" fill="#000"/>
      <path fill="#fff" d="M595 118 270 563h182l-62 343 365-492H562l33-296Z"/>
    </mask>
  </defs>

  <path stroke="#ff6b42" fill="#ff6b42" d="m453,906l302,0l0,-387.77514l-302,387.77514z" id="svg_1" stroke-width="0"/>
  <path stroke-width="10" fill="#fff" stroke="#111111" stroke-linejoin="round" d="m595,118l-325,445l182,0l-62,343l365,-492l-193,0l33,-296z" id="svg_2"/>
  <rect width="1024" height="1024" fill="url(#qr)" mask="url(#bolt-mask)"/>
</svg>
